HIERARCHY
ROOT Hips
{
	OFFSET 0.000000 0.000000 0.000000
	CHANNELS 6 Xposition Yposition Zposition Xrotation Yrotation Zrotation
	JOINT LeftUpLeg_virtual
	{
		OFFSET 0.000000 0.000000 0.000000
		CHANNELS 3 Xrotation Yrotation Zrotation
		JOINT LeftUpLeg
		{
			OFFSET 11.394100 -6.187798 -0.413800
			CHANNELS 3 Xrotation Yrotation Zrotation
			JOINT LeftLeg
			{
				OFFSET 0.430247 -32.302673 3.732800
				CHANNELS 3 Xrotation Yrotation Zrotation
				JOINT LeftFoot
				{
					OFFSET -0.430247 -48.264931 -6.423300
					CHANNELS 3 Xrotation Yrotation Zrotation
					JOINT LeftToeBase
					{
						OFFSET 4.230900 -16.068199 23.438400
						CHANNELS 3 Xrotation Yrotation Zrotation
						JOINT LeftToe_End
						{
							OFFSET 4.510700 0.695400 19.974600
							CHANNELS 3 Xrotation Yrotation Zrotation
							End Site
							{
								OFFSET 0 0 0
							}
						}
					}
				}
			}
		}
	}
	JOINT RightUpLeg_virtual
	{
		OFFSET 0.000000 0.000000 0.000000
		CHANNELS 3 Xrotation Yrotation Zrotation
		JOINT RightUpLeg
		{
			OFFSET -11.333700 -6.187798 -0.413800
			CHANNELS 3 Xrotation Yrotation Zrotation
			JOINT RightLeg
			{
				OFFSET -0.430392 -32.302628 3.733000
				CHANNELS 3 Xrotation Yrotation Zrotation
				JOINT RightFoot
				{
					OFFSET 0.430392 -48.264973 -6.423500
					CHANNELS 3 Xrotation Yrotation Zrotation
					JOINT RightToeBase
					{
						OFFSET -4.230900 -16.068199 23.438400
						CHANNELS 3 Xrotation Yrotation Zrotation
						JOINT RightToe_End
						{
							OFFSET -4.510700 0.695400 19.974600
							CHANNELS 3 Xrotation Yrotation Zrotation
							End Site
							{
								OFFSET 0 0 0
							}
						}
					}
				}
			}
		}
	}
	JOINT Spine_virtual
	{
		OFFSET 0.000000 0.000000 0.000000
		CHANNELS 3 Xrotation Yrotation Zrotation
		JOINT Spine
		{
			OFFSET -0.002400 12.777504 0.315300
			CHANNELS 3 Xrotation Yrotation Zrotation
			JOINT Spine1
			{
				OFFSET -0.002067 5.816869 0.032633
				CHANNELS 3 Xrotation Yrotation Zrotation
				JOINT Spine1_split
				{
					OFFSET -0.002067 5.816869 0.032633
					CHANNELS 3 Xrotation Yrotation Zrotation
					JOINT Spine2
					{
						OFFSET -0.002067 5.816869 0.032633
						CHANNELS 3 Xrotation Yrotation Zrotation
						JOINT Neck_virtual
						{
							OFFSET 0.000000 0.000000 0.000000
							CHANNELS 3 Xrotation Yrotation Zrotation
							JOINT Neck
							{
								OFFSET -0.003700 21.199493 -0.826900
								CHANNELS 3 Xrotation Yrotation Zrotation
								JOINT Head
								{
									OFFSET 0.000000 20.442200 4.834800
									CHANNELS 3 Xrotation Yrotation Zrotation
									JOINT HeadTop_End
									{
										OFFSET 0.000000 34.668396 4.968400
										CHANNELS 3 Xrotation Yrotation Zrotation
										End Site
										{
											OFFSET 0 0 0
										}
									}
								}
							}
						}
						JOINT LeftShoulder_virtual
						{
							OFFSET 0.000000 0.000000 0.000000
							CHANNELS 3 Xrotation Yrotation Zrotation
							JOINT LeftShoulder
							{
								OFFSET 3.288150 8.794197 -1.372250
								CHANNELS 3 Xrotation Yrotation Zrotation
								JOINT LeftShoulder_split
								{
									OFFSET 3.288150 8.794197 -1.372250
									CHANNELS 3 Xrotation Yrotation Zrotation
									JOINT LeftArm
									{
										OFFSET 11.953299 -2.279007 -0.146200
										CHANNELS 3 Xrotation Yrotation Zrotation
										JOINT LeftForeArm
										{
											OFFSET 18.448900 0.000000 0.000000
											CHANNELS 3 Xrotation Yrotation Zrotation
											JOINT LeftHand
											{
												OFFSET 29.527798 0.000000 0.000000
												CHANNELS 3 Xrotation Yrotation Zrotation
												End Site
												{
													OFFSET 0 0 0
												}
											}
										}
									}
								}
							}
						}
						JOINT RightShoulder_virtual
						{
							OFFSET 0.000000 0.000000 0.000000
							CHANNELS 3 Xrotation Yrotation Zrotation
							JOINT RightShoulder
							{
								OFFSET -3.249400 8.794197 -1.372250
								CHANNELS 3 Xrotation Yrotation Zrotation
								JOINT RightShoulder_split
								{
									OFFSET -3.249400 8.794197 -1.372250
									CHANNELS 3 Xrotation Yrotation Zrotation
									JOINT RightArm
									{
										OFFSET -11.953299 -2.279007 -0.146200
										CHANNELS 3 Xrotation Yrotation Zrotation
										JOINT RightForeArm
										{
											OFFSET -18.448900 0.000000 0.000000
											CHANNELS 3 Xrotation Yrotation Zrotation
											JOINT RightHand
											{
												OFFSET -29.527802 0.000000 0.000000
												CHANNELS 3 Xrotation Yrotation Zrotation
												End Site
												{
													OFFSET 0 0 0
												}
											}
										}
									}
								}
							}
						}
					}
				}
			}
		}
	}
}
MOTION
Frames: 11
Frame Time: 0.03333333
4.563651 14.031189 13.148937 0.000000 0.000000 0.000000 81.647111 3.301554 -2.103206 7.758478 9.899496 17.430617 17.420780 25.816703 5.119920 35.190190 27.740460 -11.332374 -1.348667 2.212752 15.432406 0.000000 0.000000 0.000000 83.746910 -1.143009 -0.868739 -1.098167 -7.216853 -19.910165 0.889749 -10.539388 -0.395236 47.693155 -17.364989 21.355626 8.901928 -1.885599 -10.559171 0.000000 0.000000 0.000000 87.175740 -0.603324 0.520614 2.327409 0.169136 -1.508809 0.888846 0.519011 -0.057587 0.380101 -1.026838 0.631366 0.000000 0.000000 0.000000 -0.645806 0.312403 -0.334399 -4.354029 -12.209719 5.481911 -18.650612 -56.021915 -19.859974 0.000000 0.000000 0.000000 0.672647 0.264224 -0.343854 3.460099 -17.221149 -3.005986 -1.307176 -0.586813 -1.413550 22.654610 -20.024445 -56.598462 0.149540 -24.726682 -0.969168 0.000000 0.000000 0.000000 0.351650 0.752794 0.199241 -0.338197 12.556878 11.716787 7.919946 6.562872 -2.728537 6.788328 -10.162973 55.464124 0.512461 28.074540 1.071395 0.000000 0.000000 0.000000 
4.564154 14.028984 13.148796 0.000000 0.000000 0.000000 81.649085 3.298780 -2.101756 7.759257 9.896831 17.429225 17.430679 25.817774 5.114004 35.196716 27.752116 -11.323302 -1.351826 2.214722 15.430403 0.000000 0.000000 0.000000 83.745530 -1.140138 -0.872897 -1.103761 -7.215115 -19.909771 0.900786 -10.535876 -0.398710 47.683849 -17.356149 21.366000 8.901234 -1.882860 -10.570013 0.000000 0.000000 0.000000 87.173616 -0.605276 0.526584 2.325682 0.168459 -1.505915 0.891720 0.517473 -0.055987 0.369779 -1.025369 0.626809 0.000000 0.000000 0.000000 -0.641571 0.312734 -0.334675 -4.356721 -12.200202 5.475906 -18.647878 -56.008501 -19.863703 0.000000 0.000000 0.000000 0.681006 0.262495 -0.342871 3.464529 -17.240012 -2.991898 -1.310917 -0.561892 -1.418369 22.660775 -20.023171 -56.597126 0.152500 -24.695804 -0.962568 0.000000 0.000000 0.000000 0.353799 0.751609 0.201280 -0.340021 12.554294 11.709683 7.927198 6.587782 -2.734242 6.769754 -10.141788 55.451533 0.527242 28.106589 1.062397 0.000000 0.000000 0.000000 
4.562829 14.027184 13.145325 0.000000 0.000000 0.000000 81.649434 3.296941 -2.104985 7.749972 9.904830 17.434271 17.446301 25.820343 5.110243 35.217429 27.760261 -11.323240 -1.359831 2.216986 15.423575 0.000000 0.000000 0.000000 83.744697 -1.143127 -0.876057 -1.106317 -7.198850 -19.904279 0.915714 -10.536063 -0.405003 47.673095 -17.347852 21.381975 8.930029 -1.881978 -10.552548 0.000000 0.000000 0.000000 87.174620 -0.609061 0.534866 2.323518 0.170299 -1.497615 0.896880 0.515862 -0.054554 0.361453 -1.028157 0.623731 0.000000 0.000000 0.000000 -0.637775 0.311534 -0.333369 -4.356682 -12.183331 5.465986 -18.622127 -56.003706 -19.862612 0.000000 0.000000 0.000000 0.690025 0.260224 -0.344238 3.469127 -17.282069 -2.984728 -1.317853 -0.549260 -1.424447 22.682022 -20.025193 -56.579381 0.137121 -24.645119 -0.969495 0.000000 0.000000 0.000000 0.359192 0.750203 0.202075 -0.340904 12.555499 11.703531 7.945151 6.612923 -2.745678 6.738586 -10.151714 55.451290 0.552591 28.119366 1.050443 0.000000 0.000000 0.000000 
4.559939 14.026512 13.139774 0.000000 0.000000 0.000000 81.649454 3.296620 -2.113921 7.727632 9.925618 17.446914 17.464541 25.822935 5.107199 35.247362 27.761073 -11.332777 -1.370104 2.219077 15.415073 0.000000 0.000000 0.000000 83.745475 -1.147764 -0.881670 -1.109193 -7.170134 -19.895614 0.937622 -10.538459 -0.413206 47.663577 -17.338768 21.405903 8.984430 -1.882010 -10.513159 0.000000 0.000000 0.000000 87.178267 -0.615816 0.541945 2.322679 0.174186 -1.484830 0.903520 0.514958 -0.053519 0.362689 -1.041277 0.629002 0.000000 0.000000 0.000000 -0.635175 0.309373 -0.331163 -4.353972 -12.163678 5.456399 -18.580075 -56.007353 -19.857537 0.000000 0.000000 0.000000 0.697805 0.257946 -0.347689 3.474409 -17.345662 -2.981623 -1.321345 -0.544745 -1.436835 22.716931 -20.018999 -56.543810 0.110063 -24.606959 -0.987278 0.000000 0.000000 0.000000 0.366253 0.749339 0.201518 -0.341865 12.557652 11.701343 7.972007 6.638163 -2.756995 6.696711 -10.201783 55.457711 0.583017 28.100886 1.036491 0.000000 0.000000 0.000000 
4.555894 14.027267 13.131824 0.000000 0.000000 0.000000 81.647972 3.300377 -2.128033 7.691705 9.954430 17.465086 17.485189 25.825895 5.103245 35.277985 27.755160 -11.349660 -1.382648 2.220538 15.407534 0.000000 0.000000 0.000000 83.747203 -1.146794 -0.893526 -1.117523 -7.135548 -19.888891 0.968761 -10.539694 -0.421644 47.659783 -17.321057 21.444730 9.046425 -1.880362 -10.461155 0.000000 0.000000 0.000000 87.184967 -0.623668 0.545560 2.325071 0.179353 -1.468779 0.911339 0.514970 -0.053810 0.368497 -1.058558 0.634865 0.000000 0.000000 0.000000 -0.634156 0.306781 -0.328944 -4.350908 -12.145047 5.450124 -18.536181 -56.016950 -19.853779 0.000000 0.000000 0.000000 0.702882 0.255905 -0.351819 3.481299 -17.427407 -2.976998 -1.312588 -0.534976 -1.448082 22.756584 -20.005112 -56.493963 0.082547 -24.592340 -1.008735 0.000000 0.000000 0.000000 0.373876 0.748586 0.198463 -0.341810 12.555837 11.702091 7.994113 6.652149 -2.774181 6.650819 -10.283062 55.459924 0.613519 28.063439 1.022442 0.000000 0.000000 0.000000 
4.549867 14.027657 13.118450 0.000000 0.000000 0.000000 81.647788 3.312728 -2.147551 7.646747 9.984264 17.485108 17.506835 25.830505 5.097675 35.296024 27.746190 -11.369467 -1.399500 2.220946 15.403245 0.000000 0.000000 0.000000 83.749628 -1.137151 -0.909908 -1.136354 -7.102570 -19.888227 1.010210 -10.536740 -0.429395 47.665097 -17.290726 21.501048 9.096659 -1.874709 -10.406283 0.000000 0.000000 0.000000 87.192522 -0.625767 0.541519 2.331429 0.184236 -1.451679 0.918724 0.515122 -0.056248 0.375200 -1.078491 0.638479 0.000000 0.000000 0.000000 -0.634303 0.303752 -0.327592 -4.351396 -12.131948 5.448077 -18.497411 -56.032625 -19.852682 0.000000 0.000000 0.000000 0.704931 0.254816 -0.355455 3.490626 -17.523291 -2.968602 -1.288328 -0.516520 -1.456343 22.797553 -19.993900 -56.430698 0.065167 -24.602702 -1.025120 0.000000 0.000000 0.000000 0.381818 0.747407 0.192828 -0.339491 12.547923 11.706788 8.018821 6.653230 -2.796689 6.603313 -10.381995 55.449535 0.639706 28.020605 1.009876 0.000000 0.000000 0.000000 
4.541845 14.026703 13.099548 0.000000 0.000000 0.000000 81.650472 3.338424 -2.173557 7.599887 10.009465 17.499008 17.528980 25.838611 5.090202 35.294944 27.738052 -11.391331 -1.427834 2.219654 15.402143 0.000000 0.000000 0.000000 83.750168 -1.116975 -0.929224 -1.167199 -7.078825 -19.895827 1.058066 -10.528632 -0.436515 47.674215 -17.250608 21.571940 9.131593 -1.865179 -10.354264 0.000000 0.000000 0.000000 87.199359 -0.617883 0.529069 2.342435 0.188140 -1.435644 0.923835 0.515645 -0.060327 0.379511 -1.091497 0.640790 0.000000 0.000000 0.000000 -0.635394 0.301042 -0.328049 -4.358435 -12.125148 5.449911 -18.462990 -56.049045 -19.853103 0.000000 0.000000 0.000000 0.706688 0.254629 -0.357819 3.502147 -17.623172 -2.954165 -1.262207 -0.493383 -1.463025 22.836048 -19.997421 -56.360190 0.065284 -24.628585 -1.028158 0.000000 0.000000 0.000000 0.389537 0.746399 0.184840 -0.335804 12.538381 11.710232 8.055500 6.643249 -2.818405 6.554721 -10.480619 55.430124 0.659944 27.986017 0.999191 0.000000 0.000000 0.000000 
4.533411 14.021942 13.081013 0.000000 0.000000 0.000000 81.657828 3.376268 -2.201636 7.551415 10.025597 17.505189 17.555729 25.851699 5.080089 35.286564 27.734299 -11.419795 -1.472579 2.216475 15.401349 0.000000 0.000000 0.000000 83.749307 -1.084813 -0.950508 -1.208995 -7.069802 -19.911899 1.111592 -10.518327 -0.442311 47.677446 -17.210704 21.645802 9.158118 -1.852811 -10.305410 0.000000 0.000000 0.000000 87.205786 -0.595758 0.509599 2.357652 0.190526 -1.421842 0.927443 0.517305 -0.065484 0.375129 -1.095274 0.634718 0.000000 0.000000 0.000000 -0.638397 0.299413 -0.330861 -4.373885 -12.124973 5.451919 -18.430840 -56.063805 -19.852221 0.000000 0.000000 0.000000 0.710685 0.255259 -0.359072 3.515021 -17.723031 -2.936526 -1.233775 -0.475093 -1.464977 22.863333 -20.025136 -56.296700 0.081770 -24.646470 -1.014411 0.000000 0.000000 0.000000 0.397827 0.746550 0.175444 -0.330600 12.537037 11.712177 8.100809 6.622784 -2.843156 6.509152 -10.562439 55.412734 0.674274 27.955546 0.991922 0.000000 0.000000 0.000000 
4.526106 14.012321 13.065048 0.000000 0.000000 0.000000 81.672089 3.422785 -2.229678 7.500088 10.035446 17.505307 17.590208 25.872939 5.067427 35.284870 27.738465 -11.455862 -1.523827 2.213045 15.393334 0.000000 0.000000 0.000000 83.747176 -1.043491 -0.973416 -1.255346 -7.071417 -19.935220 1.172508 -10.512216 -0.446519 47.666804 -17.185627 21.707900 9.188653 -1.839861 -10.257247 0.000000 0.000000 0.000000 87.211632 -0.562755 0.487165 2.375520 0.190452 -1.411687 0.928183 0.520279 -0.071356 0.364423 -1.088176 0.633666 0.000000 0.000000 0.000000 -0.641354 0.299654 -0.336209 -4.391813 -12.132197 5.451442 -18.395299 -56.078322 -19.849488 0.000000 0.000000 0.000000 0.720491 0.256154 -0.360360 3.528155 -17.819936 -2.923831 -1.205722 -0.472216 -1.459003 22.868150 -20.057021 -56.259384 0.106432 -24.643229 -0.987244 0.000000 0.000000 0.000000 0.405434 0.749559 0.167133 -0.326149 12.549294 11.712008 8.168815 6.621818 -2.855678 6.459124 -10.629641 55.399692 0.674766 27.908327 0.989804 0.000000 0.000000 0.000000 
4.518990 13.999504 13.053509 0.000000 0.000000 0.000000 81.691965 3.470229 -2.253776 7.442494 10.042060 17.502884 17.634828 25.904087 5.052920 35.302099 27.752124 -11.501125 -1.568988 2.212039 15.372271 0.000000 0.000000 0.000000 83.745216 -0.995715 -0.998527 -1.300587 -7.077413 -19.963627 1.239755 -10.512580 -0.448847 47.640972 -17.181614 21.753049 9.230692 -1.828792 -10.207708 0.000000 0.000000 0.000000 87.218087 -0.524211 0.464927 2.392815 0.188698 -1.404501 0.926960 0.525664 -0.077088 0.353094 -1.069342 0.633650 0.000000 0.000000 0.000000 -0.643964 0.303066 -0.343873 -4.403691 -12.147129 5.446200 -18.354769 -56.094336 -19.847608 0.000000 0.000000 0.000000 0.735442 0.257930 -0.362085 3.540320 -17.914997 -2.920706 -1.190061 -0.485685 -1.449217 22.838501 -20.071626 -56.265746 0.124631 -24.605680 -0.957478 0.000000 0.000000 0.000000 0.412171 0.756126 0.159911 -0.326047 12.576899 11.711487 8.250279 6.644080 -2.860362 6.403922 -10.698601 55.388565 0.655614 27.839667 0.995486 0.000000 0.000000 0.000000 
4.510180 13.985199 13.051155 0.000000 0.000000 0.000000 81.714785 3.510277 -2.270982 7.377068 10.047744 17.502631 17.690579 25.941543 5.037691 35.341380 27.774438 -11.552930 -1.602581 2.214138 15.340093 0.000000 0.000000 0.000000 83.746794 -0.945902 -1.025790 -1.340464 -7.079061 -19.993603 1.308786 -10.517308 -0.449109 47.609031 -17.190874 21.787851 9.279045 -1.820468 -10.159156 0.000000 0.000000 0.000000 87.225764 -0.487541 0.448287 2.406366 0.185736 -1.400149 0.923906 0.531964 -0.081941 0.345951 -1.055106 0.629503 0.000000 0.000000 0.000000 -0.645341 0.308926 -0.353202 -4.399456 -12.167073 5.431332 -18.315774 -56.115755 -19.850847 0.000000 0.000000 0.000000 0.752168 0.260868 -0.364491 3.553665 -18.015375 -2.926038 -1.193372 -0.511753 -1.441171 22.769810 -20.038074 -56.321771 0.124132 -24.525041 -0.937923 0.000000 0.000000 0.000000 0.417980 0.764523 0.155582 -0.330741 12.607434 11.713068 8.331420 6.680388 -2.852298 6.347696 -10.791714 55.371381 0.615273 27.768199 1.005816 0.000000 0.000000 0.000000 
